<svg width="60" height="60" viewBox="0 0 60 60" fill="none" xmlns="http://www.w3.org/2000/svg">
<path d="M25.7144 42.7393C24.2028 42.5722 22.7438 42.2306 21.3581 41.7348C21.4048 40.7242 21.4289 39.6703 21.4289 38.5715L21.4291 38.2269C21.4293 37.8803 21.4295 37.5127 21.428 37.1277C22.7605 37.7607 24.201 38.2031 25.7144 38.4196V27.8572C25.7144 24.3068 28.5925 21.4286 32.143 21.4286H42.7055C41.6654 14.1594 35.414 8.57148 27.8572 8.57148C25.3475 8.57148 22.9817 9.18785 20.903 10.2775C20.5459 8.83848 20.0003 7.52495 19.2462 6.31021C21.8381 5.01468 24.7625 4.28577 27.8572 4.28577C37.7842 4.28577 45.9592 11.7859 47.0251 21.4286H53.5715C57.1218 21.4286 60.0001 24.3068 60.0001 27.8572V49.2858C60.0001 52.836 57.1218 55.7143 53.5715 55.7143H32.143C28.5925 55.7143 25.7144 52.836 25.7144 49.2858V42.7393ZM47.0251 25.7143C46.0372 34.6535 38.9392 41.7515 30.0001 42.7393V49.2858C30.0001 50.469 30.9595 51.4286 32.143 51.4286H53.5715C54.7548 51.4286 55.7144 50.469 55.7144 49.2858V27.8572C55.7144 26.6737 54.7548 25.7143 53.5715 25.7143H47.0251ZM42.7055 25.7143H32.143C30.9595 25.7143 30.0001 26.6737 30.0001 27.8572V38.4196C36.5695 37.4799 41.7657 32.2837 42.7055 25.7143Z" fill="white"/>
<path d="M16.2641 28.1189C15.8144 26.4661 15.0852 24.8061 13.8356 23.5364C15.8556 21.6132 17.1429 18.5651 17.1429 15C17.1429 12.0114 16.5376 9.9612 15.4437 8.32028C14.9199 7.53459 14.3283 6.91046 13.7773 6.37787C13.4858 6.09609 13.2586 5.8866 13.0457 5.69031C12.7832 5.44826 12.5424 5.22626 12.2295 4.91336C11.5862 4.27007 11.5179 3.75566 11.5179 3.48214C11.5179 3.31654 11.5458 3.18206 11.5693 3.09986C11.5773 3.07196 11.5841 3.05241 11.5878 3.04243C11.9846 2.18511 11.7731 1.16503 11.061 0.5364C10.3326 -0.106615 9.26268 -0.179065 8.45422 0.359915L8.44668 0.364929L8.43451 0.373158L8.39641 0.399043L8.26869 0.487757C8.16181 0.562929 8.01262 0.670029 7.83073 0.806186C7.46786 1.07777 6.96952 1.46893 6.41448 1.9566C5.33752 2.90289 3.94321 4.3023 2.95128 5.97463C2.12272 7.25871 1.40319 8.85497 0.887536 10.398C0.374279 11.9339 7.78625e-06 13.6042 7.78625e-06 15C7.78625e-06 18.5651 1.28731 21.6132 3.30734 23.5364C2.05762 24.8061 1.32849 26.4661 0.87875 28.1189C-0.00054947 31.3506 -0.000227928 35.3344 7.78625e-06 38.4186V38.5714C7.78625e-06 47.3923 1.65172 52.632 3.51969 55.7451C4.45621 57.306 5.43506 58.311 6.25141 58.9461C6.65735 59.2616 7.01658 59.481 7.30094 59.6297C7.44288 59.7043 7.56566 59.7608 7.66574 59.8028C7.66574 59.8028 8.20946 60 8.57144 60C8.93341 60 9.47718 59.8028 9.47718 59.8028C9.57721 59.7608 9.69999 59.7043 9.84198 59.6297C10.1263 59.481 10.4855 59.2616 10.8915 58.9461C11.7078 58.311 12.6867 57.306 13.6232 55.7451C15.4912 52.632 17.1429 47.3923 17.1429 38.5714L17.1429 38.4186C17.1431 35.3344 17.1435 31.3506 16.2641 28.1189ZM6.37376 26.5305C6.85355 26.0485 7.50232 25.7143 8.57144 25.7143C9.64059 25.7143 10.2894 26.0485 10.7691 26.5305C11.3099 27.0739 11.7783 27.9562 12.1287 29.2441C12.842 31.8654 12.8571 35.3028 12.8571 38.5714C12.8571 46.8934 11.2946 51.2966 9.94826 53.5406C9.43513 54.3956 8.94678 54.9493 8.57144 55.2973C8.19609 54.9493 7.70778 54.3956 7.19465 53.5406C5.84834 51.2966 4.28572 46.8934 4.28572 38.5714C4.28572 35.3028 4.30089 31.8654 5.01412 29.2441C5.36456 27.9562 5.83304 27.0739 6.37376 26.5305ZM8.57144 21.4286C6.92264 21.4286 4.28572 19.5958 4.28572 15C4.28572 14.2574 4.50896 13.0829 4.95228 11.7564C5.38766 10.4536 5.97386 9.18763 6.57031 8.27061C6.58801 8.2434 6.60511 8.21576 6.62156 8.18773C6.99331 7.5549 7.48025 6.94136 8.00152 6.37946C8.29535 6.90471 8.68702 7.43177 9.19908 7.94383C9.51408 8.25883 9.92118 8.63777 10.2687 8.96117C10.478 9.15604 10.6657 9.33073 10.7986 9.45921C11.2521 9.8976 11.598 10.278 11.8777 10.6976C12.3909 11.4674 12.8571 12.6315 12.8571 15C12.8571 19.5958 10.2203 21.4286 8.57144 21.4286Z" fill="white"/>
</svg>
